<mxfile host="65bd71144e">
    <diagram id="X5SzS_FeevJv-DkIXQUU" name="第 1 页">
        <mxGraphModel dx="930" dy="659" grid="1" gridSize="10" guides="1" tooltips="1" connect="1" arrows="1" fold="1" page="1" pageScale="1" pageWidth="827" pageHeight="1169" math="0" shadow="0">
            <root>
                <mxCell id="0"/>
                <mxCell id="1" parent="0"/>
                <mxCell id="78" value="&lt;font style=&quot;font-size: 20px;&quot;&gt;三端&lt;/font&gt;" style="shape=umlActor;verticalLabelPosition=bottom;verticalAlign=top;html=1;outlineConnect=0;" parent="1" vertex="1">
                    <mxGeometry x="50" y="40" width="30" height="60" as="geometry"/>
                </mxCell>
                <mxCell id="103" value="开始" style="strokeWidth=2;html=1;shape=mxgraph.flowchart.terminator;whiteSpace=wrap;fontSize=20;" parent="1" vertex="1">
                    <mxGeometry x="160" y="40" width="80" height="40" as="geometry"/>
                </mxCell>
                <mxCell id="104" value="" style="endArrow=classic;html=1;fontSize=20;exitX=0.5;exitY=1;exitDx=0;exitDy=0;exitPerimeter=0;strokeWidth=1;" parent="1" edge="1">
                    <mxGeometry width="50" height="50" relative="1" as="geometry">
                        <mxPoint x="199.5" y="80" as="sourcePoint"/>
                        <mxPoint x="199.5" y="120" as="targetPoint"/>
                    </mxGeometry>
                </mxCell>
                <mxCell id="105" value="进入登录页面" style="rounded=1;whiteSpace=wrap;html=1;fontSize=20;" parent="1" vertex="1">
                    <mxGeometry x="130" y="120" width="140" height="38.75" as="geometry"/>
                </mxCell>
                <mxCell id="122" value="" style="endArrow=classic;html=1;fontSize=20;exitX=0.5;exitY=1;exitDx=0;exitDy=0;exitPerimeter=0;strokeWidth=1;entryX=0.5;entryY=0;entryDx=0;entryDy=0;" parent="1" target="123" edge="1">
                    <mxGeometry width="50" height="50" relative="1" as="geometry">
                        <mxPoint x="199.5" y="160" as="sourcePoint"/>
                        <mxPoint x="199.5" y="200" as="targetPoint"/>
                    </mxGeometry>
                </mxCell>
                <mxCell id="123" value="选择" style="rhombus;whiteSpace=wrap;html=1;fontSize=20;" parent="1" vertex="1">
                    <mxGeometry x="160" y="197.5" width="80" height="42.5" as="geometry"/>
                </mxCell>
                <mxCell id="126" value="" style="edgeStyle=segmentEdgeStyle;endArrow=classic;html=1;curved=0;rounded=0;endSize=8;startSize=8;strokeWidth=1;fontSize=20;exitX=0;exitY=0.5;exitDx=0;exitDy=0;" parent="1" source="123" edge="1">
                    <mxGeometry width="50" height="50" relative="1" as="geometry">
                        <mxPoint x="140" y="220" as="sourcePoint"/>
                        <mxPoint x="100" y="280" as="targetPoint"/>
                    </mxGeometry>
                </mxCell>
                <mxCell id="127" value="" style="edgeStyle=segmentEdgeStyle;endArrow=classic;html=1;curved=0;rounded=0;endSize=8;startSize=8;strokeWidth=1;fontSize=20;exitX=1;exitY=0.5;exitDx=0;exitDy=0;" parent="1" source="123" edge="1">
                    <mxGeometry width="50" height="50" relative="1" as="geometry">
                        <mxPoint x="260" y="200" as="sourcePoint"/>
                        <mxPoint x="300" y="280" as="targetPoint"/>
                    </mxGeometry>
                </mxCell>
                <mxCell id="128" value="&lt;font style=&quot;font-size: 20px;&quot;&gt;注册&lt;/font&gt;" style="shape=process;whiteSpace=wrap;html=1;backgroundOutline=1;" parent="1" vertex="1">
                    <mxGeometry x="60" y="280" width="80.25" height="40" as="geometry"/>
                </mxCell>
                <mxCell id="129" value="&lt;font style=&quot;font-size: 20px;&quot;&gt;登录&lt;/font&gt;" style="shape=process;whiteSpace=wrap;html=1;backgroundOutline=1;" parent="1" vertex="1">
                    <mxGeometry x="260" y="280" width="80.25" height="40" as="geometry"/>
                </mxCell>
                <mxCell id="130" value="" style="endArrow=classic;html=1;strokeWidth=1;fontSize=20;exitX=1;exitY=0.5;exitDx=0;exitDy=0;entryX=0;entryY=0.5;entryDx=0;entryDy=0;" parent="1" source="128" target="129" edge="1">
                    <mxGeometry width="50" height="50" relative="1" as="geometry">
                        <mxPoint x="400" y="360" as="sourcePoint"/>
                        <mxPoint x="450" y="310" as="targetPoint"/>
                    </mxGeometry>
                </mxCell>
                <mxCell id="131" value="" style="endArrow=classic;html=1;fontSize=20;strokeWidth=1;exitX=0.5;exitY=1;exitDx=0;exitDy=0;entryX=0.5;entryY=0;entryDx=0;entryDy=0;" parent="1" source="129" target="132" edge="1">
                    <mxGeometry width="50" height="50" relative="1" as="geometry">
                        <mxPoint x="310" y="330" as="sourcePoint"/>
                        <mxPoint x="300" y="360" as="targetPoint"/>
                    </mxGeometry>
                </mxCell>
                <mxCell id="132" value="判断" style="rhombus;whiteSpace=wrap;html=1;fontSize=20;" parent="1" vertex="1">
                    <mxGeometry x="260.25" y="358.75" width="80" height="42.5" as="geometry"/>
                </mxCell>
                <mxCell id="133" value="" style="edgeStyle=segmentEdgeStyle;endArrow=classic;html=1;curved=0;rounded=0;endSize=8;startSize=8;strokeWidth=1;fontSize=20;exitX=0;exitY=0.5;exitDx=0;exitDy=0;" parent="1" source="132" edge="1">
                    <mxGeometry width="50" height="50" relative="1" as="geometry">
                        <mxPoint x="260" y="378.75" as="sourcePoint"/>
                        <mxPoint x="200" y="440" as="targetPoint"/>
                    </mxGeometry>
                </mxCell>
                <mxCell id="134" value="" style="edgeStyle=segmentEdgeStyle;endArrow=classic;html=1;curved=0;rounded=0;endSize=8;startSize=8;strokeWidth=1;fontSize=20;exitX=1;exitY=0.5;exitDx=0;exitDy=0;" parent="1" source="132" edge="1">
                    <mxGeometry width="50" height="50" relative="1" as="geometry">
                        <mxPoint x="340.25" y="378.75" as="sourcePoint"/>
                        <mxPoint x="400.25" y="440" as="targetPoint"/>
                    </mxGeometry>
                </mxCell>
                <mxCell id="136" value="true" style="text;html=1;strokeColor=none;fillColor=none;align=center;verticalAlign=middle;whiteSpace=wrap;rounded=0;fontSize=20;" parent="1" vertex="1">
                    <mxGeometry x="200.25" y="350" width="60" height="30" as="geometry"/>
                </mxCell>
                <mxCell id="137" value="false" style="text;html=1;strokeColor=none;fillColor=none;align=center;verticalAlign=middle;whiteSpace=wrap;rounded=0;fontSize=20;" parent="1" vertex="1">
                    <mxGeometry x="340.25" y="350" width="60" height="30" as="geometry"/>
                </mxCell>
                <mxCell id="138" value="结束" style="strokeWidth=2;html=1;shape=mxgraph.flowchart.terminator;whiteSpace=wrap;fontSize=20;" parent="1" vertex="1">
                    <mxGeometry x="160" y="440" width="80" height="40" as="geometry"/>
                </mxCell>
                <mxCell id="139" value="&lt;font style=&quot;font-size: 20px;&quot;&gt;忘记密码&lt;/font&gt;" style="shape=process;whiteSpace=wrap;html=1;backgroundOutline=1;" parent="1" vertex="1">
                    <mxGeometry x="340.25" y="440" width="120.25" height="40" as="geometry"/>
                </mxCell>
                <mxCell id="140" value="" style="edgeStyle=segmentEdgeStyle;endArrow=classic;html=1;curved=0;rounded=0;endSize=8;startSize=8;strokeWidth=1;fontSize=20;exitX=1;exitY=1;exitDx=0;exitDy=0;" parent="1" source="137" edge="1">
                    <mxGeometry width="50" height="50" relative="1" as="geometry">
                        <mxPoint x="440.25" y="350" as="sourcePoint"/>
                        <mxPoint x="340.25" y="300" as="targetPoint"/>
                        <Array as="points">
                            <mxPoint x="400" y="300"/>
                        </Array>
                    </mxGeometry>
                </mxCell>
                <mxCell id="141" value="" style="edgeStyle=elbowEdgeStyle;elbow=horizontal;endArrow=classic;html=1;curved=0;rounded=0;endSize=8;startSize=8;strokeWidth=1;fontSize=20;" parent="1" edge="1">
                    <mxGeometry width="50" height="50" relative="1" as="geometry">
                        <mxPoint x="460.5" y="460" as="sourcePoint"/>
                        <mxPoint x="340" y="300" as="targetPoint"/>
                        <Array as="points">
                            <mxPoint x="480" y="380"/>
                        </Array>
                    </mxGeometry>
                </mxCell>
                <mxCell id="142" value="登录界面&lt;br&gt;流程" style="text;strokeColor=none;fillColor=none;html=1;fontSize=24;fontStyle=1;verticalAlign=middle;align=center;" parent="1" vertex="1">
                    <mxGeometry x="340.25" y="118.75" width="100" height="40" as="geometry"/>
                </mxCell>
                <mxCell id="144" value="&lt;font style=&quot;font-size: 20px;&quot;&gt;三端&lt;/font&gt;" style="shape=umlActor;verticalLabelPosition=bottom;verticalAlign=top;html=1;outlineConnect=0;" parent="1" vertex="1">
                    <mxGeometry x="640" y="40" width="30" height="60" as="geometry"/>
                </mxCell>
                <mxCell id="145" value="开始" style="strokeWidth=2;html=1;shape=mxgraph.flowchart.terminator;whiteSpace=wrap;fontSize=20;" parent="1" vertex="1">
                    <mxGeometry x="720" y="40" width="80" height="40" as="geometry"/>
                </mxCell>
                <mxCell id="146" value="" style="endArrow=classic;html=1;fontSize=20;strokeWidth=1;" parent="1" edge="1">
                    <mxGeometry width="50" height="50" relative="1" as="geometry">
                        <mxPoint x="759.5" y="80" as="sourcePoint"/>
                        <mxPoint x="760" y="120" as="targetPoint"/>
                    </mxGeometry>
                </mxCell>
                <mxCell id="147" value="输入" style="rounded=1;whiteSpace=wrap;html=1;fontSize=20;" parent="1" vertex="1">
                    <mxGeometry x="720" y="120" width="80" height="38.75" as="geometry"/>
                </mxCell>
                <mxCell id="148" value="" style="endArrow=classic;html=1;fontSize=20;strokeWidth=1;entryX=0.5;entryY=0;entryDx=0;entryDy=0;" parent="1" target="151" edge="1">
                    <mxGeometry width="50" height="50" relative="1" as="geometry">
                        <mxPoint x="759.5" y="160" as="sourcePoint"/>
                        <mxPoint x="760" y="250" as="targetPoint"/>
                    </mxGeometry>
                </mxCell>
                <mxCell id="151" value="判断" style="rhombus;whiteSpace=wrap;html=1;fontSize=20;" parent="1" vertex="1">
                    <mxGeometry x="720" y="220" width="80" height="42.5" as="geometry"/>
                </mxCell>
                <mxCell id="152" value="" style="edgeStyle=segmentEdgeStyle;endArrow=classic;html=1;curved=0;rounded=0;endSize=8;startSize=8;strokeWidth=1;fontSize=20;" parent="1" edge="1">
                    <mxGeometry width="50" height="50" relative="1" as="geometry">
                        <mxPoint x="720" y="240" as="sourcePoint"/>
                        <mxPoint x="660" y="300" as="targetPoint"/>
                    </mxGeometry>
                </mxCell>
                <mxCell id="153" value="" style="edgeStyle=segmentEdgeStyle;endArrow=classic;html=1;curved=0;rounded=0;endSize=8;startSize=8;strokeWidth=1;fontSize=20;exitX=1;exitY=0.5;exitDx=0;exitDy=0;" parent="1" edge="1">
                    <mxGeometry width="50" height="50" relative="1" as="geometry">
                        <mxPoint x="800" y="241.25" as="sourcePoint"/>
                        <mxPoint x="860" y="302.5" as="targetPoint"/>
                        <Array as="points">
                            <mxPoint x="800" y="240"/>
                            <mxPoint x="860" y="240"/>
                        </Array>
                    </mxGeometry>
                </mxCell>
                <mxCell id="154" value="后端" style="text;html=1;strokeColor=none;fillColor=none;align=center;verticalAlign=middle;whiteSpace=wrap;rounded=0;fontSize=20;" parent="1" vertex="1">
                    <mxGeometry x="690" y="167.5" width="60" height="30" as="geometry"/>
                </mxCell>
                <mxCell id="157" value="" style="strokeWidth=1;html=1;shape=mxgraph.flowchart.annotation_1;align=left;pointerEvents=1;fontSize=20;" parent="1" vertex="1">
                    <mxGeometry x="827" y="100" width="63" height="80" as="geometry"/>
                </mxCell>
                <mxCell id="158" value="" style="endArrow=none;html=1;strokeWidth=1;fontSize=20;entryX=1;entryY=0.5;entryDx=0;entryDy=0;exitX=0;exitY=0.5;exitDx=0;exitDy=0;exitPerimeter=0;" parent="1" source="157" target="147" edge="1">
                    <mxGeometry width="50" height="50" relative="1" as="geometry">
                        <mxPoint x="540" y="340" as="sourcePoint"/>
                        <mxPoint x="590" y="290" as="targetPoint"/>
                    </mxGeometry>
                </mxCell>
                <mxCell id="159" value="账号&lt;br&gt;密码" style="text;html=1;strokeColor=none;fillColor=none;align=center;verticalAlign=middle;whiteSpace=wrap;rounded=0;strokeWidth=1;fontSize=20;" parent="1" vertex="1">
                    <mxGeometry x="830" y="115" width="60" height="50" as="geometry"/>
                </mxCell>
                <mxCell id="160" value="登录流程" style="text;strokeColor=none;fillColor=none;html=1;fontSize=24;fontStyle=1;verticalAlign=middle;align=center;" parent="1" vertex="1">
                    <mxGeometry x="710" y="480" width="100" height="40" as="geometry"/>
                </mxCell>
                <mxCell id="161" value="true" style="text;html=1;strokeColor=none;fillColor=none;align=center;verticalAlign=middle;whiteSpace=wrap;rounded=0;fontSize=20;" parent="1" vertex="1">
                    <mxGeometry x="660" y="210" width="60" height="30" as="geometry"/>
                </mxCell>
                <mxCell id="162" value="false" style="text;html=1;strokeColor=none;fillColor=none;align=center;verticalAlign=middle;whiteSpace=wrap;rounded=0;fontSize=20;" parent="1" vertex="1">
                    <mxGeometry x="800" y="210" width="60" height="30" as="geometry"/>
                </mxCell>
                <mxCell id="163" value="结束" style="strokeWidth=2;html=1;shape=mxgraph.flowchart.terminator;whiteSpace=wrap;fontSize=20;" parent="1" vertex="1">
                    <mxGeometry x="620" y="400" width="80" height="40" as="geometry"/>
                </mxCell>
                <mxCell id="164" value="错误原因" style="rounded=1;whiteSpace=wrap;html=1;fontSize=20;" parent="1" vertex="1">
                    <mxGeometry x="807.75" y="300.63" width="101.5" height="38.75" as="geometry"/>
                </mxCell>
                <mxCell id="165" value="返回" style="text;html=1;strokeColor=none;fillColor=none;align=center;verticalAlign=middle;whiteSpace=wrap;rounded=0;fontSize=20;" parent="1" vertex="1">
                    <mxGeometry x="860" y="260" width="60" height="30" as="geometry"/>
                </mxCell>
                <mxCell id="166" value="" style="strokeWidth=1;html=1;shape=mxgraph.flowchart.annotation_1;align=left;pointerEvents=1;fontSize=20;" parent="1" vertex="1">
                    <mxGeometry x="940" y="255.01" width="120" height="129.99" as="geometry"/>
                </mxCell>
                <mxCell id="167" value="" style="endArrow=none;html=1;strokeWidth=1;fontSize=20;entryX=1;entryY=0.5;entryDx=0;entryDy=0;exitX=0;exitY=0.5;exitDx=0;exitDy=0;exitPerimeter=0;" parent="1" source="166" edge="1">
                    <mxGeometry width="50" height="50" relative="1" as="geometry">
                        <mxPoint x="649.25" y="520.01" as="sourcePoint"/>
                        <mxPoint x="909.25" y="319.385" as="targetPoint"/>
                    </mxGeometry>
                </mxCell>
                <mxCell id="168" value="账号错误&lt;br&gt;密码错误" style="text;html=1;strokeColor=none;fillColor=none;align=center;verticalAlign=middle;whiteSpace=wrap;rounded=0;strokeWidth=1;fontSize=20;" parent="1" vertex="1">
                    <mxGeometry x="943" y="270.01" width="117" height="99.99" as="geometry"/>
                </mxCell>
                <mxCell id="169" value="返回" style="text;html=1;strokeColor=none;fillColor=none;align=center;verticalAlign=middle;whiteSpace=wrap;rounded=0;fontSize=20;" parent="1" vertex="1">
                    <mxGeometry x="600" y="260" width="60" height="30" as="geometry"/>
                </mxCell>
                <mxCell id="170" value="令牌" style="rounded=1;whiteSpace=wrap;html=1;fontSize=20;" parent="1" vertex="1">
                    <mxGeometry x="620" y="300.63" width="80" height="38.75" as="geometry"/>
                </mxCell>
                <mxCell id="171" value="" style="endArrow=classic;html=1;fontSize=20;strokeWidth=1;entryX=0.5;entryY=0;entryDx=0;entryDy=0;" parent="1" edge="1">
                    <mxGeometry width="50" height="50" relative="1" as="geometry">
                        <mxPoint x="660" y="339.38" as="sourcePoint"/>
                        <mxPoint x="660.5" y="399.38" as="targetPoint"/>
                    </mxGeometry>
                </mxCell>
                <mxCell id="172" value="" style="shape=flexArrow;endArrow=classic;html=1;" edge="1" parent="1" source="151">
                    <mxGeometry width="50" height="50" relative="1" as="geometry">
                        <mxPoint x="710" y="360" as="sourcePoint"/>
                        <mxPoint x="760" y="340" as="targetPoint"/>
                    </mxGeometry>
                </mxCell>
                <mxCell id="173" value="&lt;font style=&quot;font-size: 20px;&quot;&gt;登录接口&lt;/font&gt;" style="rounded=0;whiteSpace=wrap;html=1;fillColor=none;" vertex="1" parent="1">
                    <mxGeometry x="713.5" y="339.38" width="93" height="28.75" as="geometry"/>
                </mxCell>
            </root>
        </mxGraphModel>
    </diagram>
</mxfile>